# Tiled2Unity generated file. Do not modify by hand.
# Wavefront file for 'Prueba_mesh_0003.obj'

# Vertices (Count = 176)
v -688 -496 0
v -704 -496 0
v -704 -480 0
v -688 -480 0
v -688 -480 0
v -704 -480 0
v -704 -464 0
v -688 -464 0
v -384 -480 0
v -400 -480 0
v -400 -464 0
v -384 -464 0
v -384 -464 0
v -400 -464 0
v -400 -448 0
v -384 -448 0
v -512 -448 0
v -528 -448 0
v -528 -432 0
v -512 -432 0
v -512 -432 0
v -528 -432 0
v -528 -416 0
v -512 -416 0
v -480 -432 0
v -496 -432 0
v -496 -416 0
v -480 -416 0
v -752 -416 0
v -768 -416 0
v -768 -400 0
v -752 -400 0
v -624 -400 0
v -640 -400 0
v -640 -384 0
v -624 -384 0
v -656 -384 0
v -672 -384 0
v -672 -368 0
v -656 -368 0
v -640 -384 0
v -656 -384 0
v -656 -368 0
v -640 -368 0
v -624 -384 0
v -640 -384 0
v -640 -368 0
v -624 -368 0
v -608 -384 0
v -624 -384 0
v -624 -368 0
v -608 -368 0
v -656 -368 0
v -672 -368 0
v -672 -352 0
v -656 -352 0
v -640 -368 0
v -656 -368 0
v -656 -352 0
v -640 -352 0
v -624 -368 0
v -640 -368 0
v -640 -352 0
v -624 -352 0
v -608 -368 0
v -624 -368 0
v -624 -352 0
v -608 -352 0
v -784 -352 0
v -800 -352 0
v -800 -336 0
v -784 -336 0
v -656 -352 0
v -672 -352 0
v -672 -336 0
v -656 -336 0
v -640 -352 0
v -656 -352 0
v -656 -336 0
v -640 -336 0
v -624 -352 0
v -640 -352 0
v -640 -336 0
v -624 -336 0
v -608 -352 0
v -624 -352 0
v -624 -336 0
v -608 -336 0
v -304 -352 0
v -320 -352 0
v -320 -336 0
v -304 -336 0
v -784 -336 0
v -800 -336 0
v -800 -320 0
v -784 -320 0
v -640 -336 0
v -656 -336 0
v -656 -320 0
v -640 -320 0
v -624 -336 0
v -640 -336 0
v -640 -320 0
v -624 -320 0
v -304 -336 0
v -320 -336 0
v -320 -320 0
v -304 -320 0
v -752 -304 0
v -768 -304 0
v -768 -288 0
v -752 -288 0
v -464 -288 0
v -480 -288 0
v -480 -272 0
v -464 -272 0
v -752 -256 0
v -768 -256 0
v -768 -240 0
v -752 -240 0
v -480 -256 0
v -496 -256 0
v -496 -240 0
v -480 -240 0
v -416 -256 0
v -432 -256 0
v -432 -240 0
v -416 -240 0
v -752 -240 0
v -768 -240 0
v -768 -224 0
v -752 -224 0
v -688 -240 0
v -704 -240 0
v -704 -224 0
v -688 -224 0
v -640 -240 0
v -656 -240 0
v -656 -224 0
v -640 -224 0
v -624 -240 0
v -640 -240 0
v -640 -224 0
v -624 -224 0
v -608 -240 0
v -624 -240 0
v -624 -224 0
v -608 -224 0
v -592 -240 0
v -608 -240 0
v -608 -224 0
v -592 -224 0
v -576 -240 0
v -592 -240 0
v -592 -224 0
v -576 -224 0
v -560 -240 0
v -576 -240 0
v -576 -224 0
v -560 -224 0
v -544 -240 0
v -560 -240 0
v -560 -224 0
v -544 -224 0
v -416 -240 0
v -432 -240 0
v -432 -224 0
v -416 -224 0
v -608 -208 0
v -624 -208 0
v -624 -192 0
v -608 -192 0
v -608 -192 0
v -624 -192 0
v -624 -176 0
v -608 -176 0

# Texture cooridinates (Count = 36)
vt 0.2634298 0.6140684
vt 0.2799587 0.6140684
vt 0.2799587 0.6444867
vt 0.2634298 0.6444867
vt 0.2634298 0.6463878
vt 0.2799587 0.6463878
vt 0.2799587 0.6768061
vt 0.2634298 0.6768061
vt 0.2283058 0.6787072
vt 0.2448347 0.6787072
vt 0.2448347 0.7091255
vt 0.2283058 0.7091255
vt 0.08780992 0.4201521
vt 0.1043388 0.4201521
vt 0.1043388 0.4505703
vt 0.08780992 0.4505703
vt 0.3336777 0.2585551
vt 0.3502066 0.2585551
vt 0.3502066 0.2889734
vt 0.3336777 0.2889734
vt 0.3161157 0.2585551
vt 0.3326446 0.2585551
vt 0.3326446 0.2889734
vt 0.3161157 0.2889734
vt 0.2985537 0.2585551
vt 0.3150826 0.2585551
vt 0.3150826 0.2889734
vt 0.2985537 0.2889734
vt 0.2458678 0.2908745
vt 0.2623967 0.2908745
vt 0.2623967 0.3212928
vt 0.2458678 0.3212928
vt 0.2283058 0.2908745
vt 0.2448347 0.2908745
vt 0.2448347 0.3212928
vt 0.2283058 0.3212928

# Normal
vn 0 0 -1

# Mesh description
g Prueba_mesh_0003

# Faces
f 1/1/1 2/2/1 3/3/1 4/4/1
f 5/5/1 6/6/1 7/7/1 8/8/1
f 9/1/1 10/2/1 11/3/1 12/4/1
f 13/5/1 14/6/1 15/7/1 16/8/1
f 17/1/1 18/2/1 19/3/1 20/4/1
f 21/5/1 22/6/1 23/7/1 24/8/1
f 25/9/1 26/10/1 27/11/1 28/12/1
f 29/9/1 30/10/1 31/11/1 32/12/1
f 33/13/1 34/14/1 35/15/1 36/16/1
f 37/17/1 38/18/1 39/19/1 40/20/1
f 41/21/1 42/22/1 43/23/1 44/24/1
f 45/21/1 46/22/1 47/23/1 48/24/1
f 49/25/1 50/26/1 51/27/1 52/28/1
f 53/17/1 54/18/1 55/19/1 56/20/1
f 57/21/1 58/22/1 59/23/1 60/24/1
f 61/21/1 62/22/1 63/23/1 64/24/1
f 65/25/1 66/26/1 67/27/1 68/28/1
f 69/1/1 70/2/1 71/3/1 72/4/1
f 73/29/1 74/30/1 75/31/1 76/32/1
f 77/21/1 78/22/1 79/23/1 80/24/1
f 81/21/1 82/22/1 83/23/1 84/24/1
f 85/33/1 86/34/1 87/35/1 88/36/1
f 89/1/1 90/2/1 91/3/1 92/4/1
f 93/5/1 94/6/1 95/7/1 96/8/1
f 97/29/1 98/30/1 99/31/1 100/32/1
f 101/33/1 102/34/1 103/35/1 104/36/1
f 105/5/1 106/6/1 107/7/1 108/8/1
f 109/9/1 110/10/1 111/11/1 112/12/1
f 113/9/1 114/10/1 115/11/1 116/12/1
f 117/1/1 118/2/1 119/3/1 120/4/1
f 121/9/1 122/10/1 123/11/1 124/12/1
f 125/1/1 126/2/1 127/3/1 128/4/1
f 129/5/1 130/6/1 131/7/1 132/8/1
f 133/9/1 134/10/1 135/11/1 136/12/1
f 137/9/1 138/10/1 139/11/1 140/12/1
f 141/9/1 142/10/1 143/11/1 144/12/1
f 145/9/1 146/10/1 147/11/1 148/12/1
f 149/9/1 150/10/1 151/11/1 152/12/1
f 153/9/1 154/10/1 155/11/1 156/12/1
f 157/9/1 158/10/1 159/11/1 160/12/1
f 161/9/1 162/10/1 163/11/1 164/12/1
f 165/5/1 166/6/1 167/7/1 168/8/1
f 169/1/1 170/2/1 171/3/1 172/4/1
f 173/5/1 174/6/1 175/7/1 176/8/1

